<svg xmlns="http://www.w3.org/2000/svg" xmlns:xlink="http://www.w3.org/1999/xlink" viewBox="0 0 32 32" width="18" height="18" style="" filter="none">
    
    <g>
    <path d="M9.333 14.667c-3.314 0-6-2.686-6-6s2.686-6 6-6v0c3.314 0 6 2.686 6 6s-2.686 6-6 6v0zM23.333 20c-2.946 0-5.333-2.388-5.333-5.333s2.388-5.333 5.333-5.333v0c2.946 0 5.333 2.388 5.333 5.333s-2.388 5.333-5.333 5.333v0zM23.333 21.333c3.314 0 6 2.686 6 6v0 0.667h-12v-0.667c0-3.314 2.686-6 6-6v0zM9.333 16c3.682 0 6.667 2.985 6.667 6.667v0 5.333h-13.333v-5.333c0-3.682 2.985-6.667 6.667-6.667v0z" fill="currentColor"></path>
    </g>
  </svg>