<svg xmlns="http://www.w3.org/2000/svg" xmlns:xlink="http://www.w3.org/1999/xlink" viewBox="0 0 32 32" width="18" height="18" style="" filter="none">
    
    <g>
    <path d="M11.581 5.333l3.476-3.476c0.241-0.241 0.575-0.39 0.943-0.39s0.701 0.149 0.943 0.39l3.476 3.476h4.915c0.736 0 1.333 0.597 1.333 1.333v0 4.915l3.476 3.476c0.241 0.241 0.39 0.575 0.39 0.943s-0.149 0.701-0.39 0.943l-3.476 3.476v4.915c0 0.736-0.597 1.333-1.333 1.333v0h-4.915l-3.476 3.476c-0.241 0.241-0.575 0.39-0.943 0.39s-0.701-0.149-0.943-0.39l-3.476-3.476h-4.915c-0.736 0-1.333-0.597-1.333-1.333v0-4.915l-3.476-3.476c-0.241-0.241-0.39-0.575-0.39-0.943s0.149-0.701 0.39-0.943l3.476-3.476v-4.915c0-0.736 0.597-1.333 1.333-1.333v0h4.915zM16 20c2.209 0 4-1.791 4-4s-1.791-4-4-4v0c-2.209 0-4 1.791-4 4s1.791 4 4 4v0z" fill="currentColor"></path>
    </g>
  </svg>