<svg xmlns="http://www.w3.org/2000/svg" xmlns:xlink="http://www.w3.org/1999/xlink" viewBox="0 0 32 32" width="18" height="18" style="" filter="none">
    
    <g>
    <path d="M25.071 11.324c0.856 0.427 1.865 0.676 2.932 0.676 0.471 0 0.93-0.049 1.374-0.141l-0.044 0.008v14.8c0 0.736-0.597 1.333-1.333 1.333v0h-24c-0.736 0-1.333-0.597-1.333-1.333v0-21.333c0-0.736 0.597-1.333 1.333-1.333v0h17.467c-0.088 0.431-0.133 0.877-0.133 1.333 0 0.003 0 0.006 0 0.009 0 1.65 0.602 3.16 1.598 4.321l-0.007-0.009-6.843 5.923-8.552-7.26-1.725 2.032 10.293 8.74 8.973-7.765zM28 9.333c-2.209 0-4-1.791-4-4s1.791-4 4-4v0c2.209 0 4 1.791 4 4s-1.791 4-4 4v0z" fill="currentColor"></path>
    </g>
  </svg>