<svg xmlns="http://www.w3.org/2000/svg" xmlns:xlink="http://www.w3.org/1999/xlink" viewBox="0 0 32 32" width="18" height="18" style="" filter="none">
    
    <g>
    <path d="M22.667 4h5.333c0.736 0 1.333 0.597 1.333 1.333v0 21.333c0 0.736-0.597 1.333-1.333 1.333v0h-24c-0.736 0-1.333-0.597-1.333-1.333v0-21.333c0-0.736 0.597-1.333 1.333-1.333v0h5.333v-2.667h2.667v2.667h8v-2.667h2.667v2.667zM5.333 12v13.333h21.333v-13.333h-21.333zM8 14.667h2.667v2.667h-2.667v-2.667zM8 20h2.667v2.667h-2.667v-2.667zM13.333 14.667h10.667v2.667h-10.667v-2.667zM13.333 20h6.667v2.667h-6.667v-2.667z" fill="currentColor"></path>
    </g>
  </svg>