<svg xmlns="http://www.w3.org/2000/svg" xmlns:xlink="http://www.w3.org/1999/xlink" viewBox="0 0 32 32" width="18" height="18" style="" filter="none">
    
    <g>
    <path d="M29.333 10.667h-12c-0.736 0-1.333 0.597-1.333 1.333v0 8c0 0.736 0.597 1.333 1.333 1.333v0h12v5.333c0 0.736-0.597 1.333-1.333 1.333v0h-24c-0.736 0-1.333-0.597-1.333-1.333v0-21.333c0-0.736 0.597-1.333 1.333-1.333v0h24c0.736 0 1.333 0.597 1.333 1.333v0 5.333zM20 14.667h4v2.667h-4v-2.667z" fill="currentColor"></path>
    </g>
  </svg>