<svg xmlns="http://www.w3.org/2000/svg" xmlns:xlink="http://www.w3.org/1999/xlink" viewBox="0 0 32 32" width="18" height="18" style="" filter="none">
    
    <g>
    <path d="M4 4h24c0.736 0 1.333 0.597 1.333 1.333v0 21.333c0 0.736-0.597 1.333-1.333 1.333v0h-24c-0.736 0-1.333-0.597-1.333-1.333v0-21.333c0-0.736 0.597-1.333 1.333-1.333v0zM11.333 18.667v2.667h3.333v2.667h2.667v-2.667h1.333c1.841 0 3.333-1.492 3.333-3.333s-1.492-3.333-3.333-3.333v0h-5.333c-0.368 0-0.667-0.298-0.667-0.667s0.298-0.667 0.667-0.667v0h7.333v-2.667h-3.333v-2.667h-2.667v2.667h-1.333c-1.841 0-3.333 1.492-3.333 3.333s1.492 3.333 3.333 3.333v0h5.333c0.368 0 0.667 0.298 0.667 0.667s-0.298 0.667-0.667 0.667v0h-7.333z" fill="currentColor"></path>
    </g>
  </svg>