<svg xmlns="http://www.w3.org/2000/svg" xmlns:xlink="http://www.w3.org/1999/xlink" viewBox="0 0 32 32" width="18" height="18" style="" filter="none">
    
    <g>
    <path d="M16 2.667c7.36 0 13.333 5.973 13.333 13.333s-5.973 13.333-13.333 13.333-13.333-5.973-13.333-13.333 5.973-13.333 13.333-13.333zM8.031 20.555c1.957 2.92 4.896 4.779 8.183 4.779 3.285 0 6.225-1.857 8.181-4.779-2.131-1.996-5.005-3.221-8.165-3.221-0.006 0-0.012 0-0.018 0h0.001c-0.005 0-0.012 0-0.018 0-3.16 0-6.033 1.226-8.171 3.227l0.007-0.006zM16 14.667c2.209 0 4-1.791 4-4s-1.791-4-4-4v0c-2.209 0-4 1.791-4 4s1.791 4 4 4v0z" fill="currentColor"></path>
    </g>
  </svg>